<?xml version="1.0" encoding="UTF-8"?>
<svg width="32" height="32" viewBox="0 0 32 32" version="1.1" xmlns="http://www.w3.org/2000/svg">
    <defs>
        <linearGradient id="vistaGradient" x1="0%" y1="0%" x2="100%" y2="100%">
            <stop offset="0%" style="stop-color:#D3705A" />
            <stop offset="100%" style="stop-color:#1F4952" />
        </linearGradient>
    </defs>
    <rect width="32" height="32" rx="6" fill="#1F4952"/>
    <g transform="translate(4, 4)">
        <!-- V letter -->
        <path d="M2 2 L8 20 L12 20 L18 2 L14 2 L10 16 L6 2 Z" fill="#D3705A"/>
        <!-- C letter -->
        <path d="M24 6 C24 3.8 22.2 2 20 2 L20 2 C17.8 2 16 3.8 16 6 L16 16 C16 18.2 17.8 20 20 20 L20 20 C22.2 20 24 18.2 24 16 L24 14 L20 14 L20 16 C20 16.6 19.6 17 19 17 C18.4 17 18 16.6 18 16 L18 6 C18 5.4 18.4 5 19 5 C19.6 5 20 5.4 20 6 L20 8 L24 8 Z" fill="#FEFEFE"/>
    </g>
</svg>